<mxfile host="app.diagrams.net" modified="2023-12-23T08:09:41.211Z" agent="Mozilla/5.0 (Windows NT 10.0; Win64; x64) AppleWebKit/537.36 (KHTML, like Gecko) Chrome/120.0.0.0 Safari/537.36" etag="v14gE7on1CPYNnbGfvJo" version="22.1.11" type="device">
  <diagram name="Page-1" id="zoWXhu9OjsJh1nvla3KO">
    <mxGraphModel dx="1050" dy="557" grid="1" gridSize="10" guides="1" tooltips="1" connect="1" arrows="1" fold="1" page="1" pageScale="1" pageWidth="850" pageHeight="1100" math="0" shadow="0">
      <root>
        <mxCell id="0" />
        <mxCell id="1" parent="0" />
        <mxCell id="o1AAxm44Ju1NQ7rlXFdG-5" value="" style="ellipse;html=1;shape=startState;fillColor=#000000;strokeColor=#ff0000;" parent="1" vertex="1">
          <mxGeometry x="410" y="60" width="30" height="30" as="geometry" />
        </mxCell>
        <mxCell id="o1AAxm44Ju1NQ7rlXFdG-8" value="" style="endArrow=none;html=1;rounded=0;" parent="1" edge="1">
          <mxGeometry width="50" height="50" relative="1" as="geometry">
            <mxPoint x="541" y="234" as="sourcePoint" />
            <mxPoint x="501" y="234" as="targetPoint" />
          </mxGeometry>
        </mxCell>
        <mxCell id="o1AAxm44Ju1NQ7rlXFdG-10" value="" style="endArrow=classic;html=1;rounded=0;entryX=1;entryY=0.5;entryDx=0;entryDy=0;" parent="1" edge="1">
          <mxGeometry width="50" height="50" relative="1" as="geometry">
            <mxPoint x="540" y="135" as="sourcePoint" />
            <mxPoint x="490" y="135" as="targetPoint" />
          </mxGeometry>
        </mxCell>
        <mxCell id="o1AAxm44Ju1NQ7rlXFdG-11" value="&lt;b style=&quot;border-color: var(--border-color);&quot;&gt;ADMIN DASHBOARD&lt;/b&gt;" style="rounded=1;whiteSpace=wrap;html=1;" parent="1" vertex="1">
          <mxGeometry x="353" y="320" width="145" height="50" as="geometry" />
        </mxCell>
        <mxCell id="o1AAxm44Ju1NQ7rlXFdG-16" value="" style="endArrow=classic;html=1;rounded=0;entryX=0.492;entryY=0.3;entryDx=0;entryDy=0;entryPerimeter=0;" parent="1" edge="1">
          <mxGeometry width="50" height="50" relative="1" as="geometry">
            <mxPoint x="425.08" y="371" as="sourcePoint" />
            <mxPoint x="425.00000000000006" y="424" as="targetPoint" />
          </mxGeometry>
        </mxCell>
        <mxCell id="o1AAxm44Ju1NQ7rlXFdG-17" value="" style="endArrow=classic;html=1;rounded=0;entryX=0.492;entryY=0.3;entryDx=0;entryDy=0;entryPerimeter=0;" parent="1" edge="1">
          <mxGeometry width="50" height="50" relative="1" as="geometry">
            <mxPoint x="70.07999999999998" y="426" as="sourcePoint" />
            <mxPoint x="70.00000000000006" y="479" as="targetPoint" />
          </mxGeometry>
        </mxCell>
        <mxCell id="o1AAxm44Ju1NQ7rlXFdG-19" value="" style="endArrow=none;html=1;rounded=0;" parent="1" edge="1">
          <mxGeometry width="50" height="50" relative="1" as="geometry">
            <mxPoint x="70" y="426" as="sourcePoint" />
            <mxPoint x="770" y="426" as="targetPoint" />
          </mxGeometry>
        </mxCell>
        <mxCell id="o1AAxm44Ju1NQ7rlXFdG-20" value="" style="endArrow=classic;html=1;rounded=0;entryX=0.492;entryY=0.3;entryDx=0;entryDy=0;entryPerimeter=0;" parent="1" edge="1">
          <mxGeometry width="50" height="50" relative="1" as="geometry">
            <mxPoint x="770.0799999999999" y="426" as="sourcePoint" />
            <mxPoint x="770" y="479" as="targetPoint" />
          </mxGeometry>
        </mxCell>
        <mxCell id="o1AAxm44Ju1NQ7rlXFdG-23" value="&lt;b&gt;&lt;font style=&quot;font-size: 11px;&quot;&gt;VALID&lt;/font&gt;&lt;/b&gt;" style="text;html=1;strokeColor=none;fillColor=none;align=center;verticalAlign=middle;whiteSpace=wrap;rounded=0;" parent="1" vertex="1">
          <mxGeometry x="422" y="289" width="60" height="21" as="geometry" />
        </mxCell>
        <mxCell id="o1AAxm44Ju1NQ7rlXFdG-24" value="&lt;b&gt;MANAGE COURSE&lt;/b&gt;" style="rounded=1;whiteSpace=wrap;html=1;" parent="1" vertex="1">
          <mxGeometry x="10" y="479" width="150" height="40" as="geometry" />
        </mxCell>
        <mxCell id="o1AAxm44Ju1NQ7rlXFdG-25" value="&lt;b&gt;MANAGE TEACHER&lt;/b&gt;" style="rounded=1;whiteSpace=wrap;html=1;" parent="1" vertex="1">
          <mxGeometry x="180" y="479" width="150" height="40" as="geometry" />
        </mxCell>
        <mxCell id="o1AAxm44Ju1NQ7rlXFdG-26" value="&lt;b&gt;MANAGE STUDENT&lt;/b&gt;" style="rounded=1;whiteSpace=wrap;html=1;" parent="1" vertex="1">
          <mxGeometry x="353" y="479" width="157" height="40" as="geometry" />
        </mxCell>
        <mxCell id="o1AAxm44Ju1NQ7rlXFdG-27" value="&lt;b&gt;FEES PAYMENT&lt;/b&gt;" style="rounded=1;whiteSpace=wrap;html=1;" parent="1" vertex="1">
          <mxGeometry x="530" y="479" width="150" height="40" as="geometry" />
        </mxCell>
        <mxCell id="o1AAxm44Ju1NQ7rlXFdG-28" value="&lt;b&gt;UPDATE LOGIN CREDENTIALS&lt;/b&gt;" style="rounded=1;whiteSpace=wrap;html=1;" parent="1" vertex="1">
          <mxGeometry x="700" y="479" width="140" height="40" as="geometry" />
        </mxCell>
        <mxCell id="o1AAxm44Ju1NQ7rlXFdG-29" value="" style="endArrow=classic;html=1;rounded=0;entryX=0.492;entryY=0.3;entryDx=0;entryDy=0;entryPerimeter=0;" parent="1" edge="1">
          <mxGeometry width="50" height="50" relative="1" as="geometry">
            <mxPoint x="240.07999999999998" y="426" as="sourcePoint" />
            <mxPoint x="240.00000000000006" y="479" as="targetPoint" />
          </mxGeometry>
        </mxCell>
        <mxCell id="o1AAxm44Ju1NQ7rlXFdG-30" value="" style="endArrow=classic;html=1;rounded=0;entryX=0.492;entryY=0.3;entryDx=0;entryDy=0;entryPerimeter=0;" parent="1" edge="1">
          <mxGeometry width="50" height="50" relative="1" as="geometry">
            <mxPoint x="424.08" y="426" as="sourcePoint" />
            <mxPoint x="424.00000000000006" y="479" as="targetPoint" />
          </mxGeometry>
        </mxCell>
        <mxCell id="o1AAxm44Ju1NQ7rlXFdG-31" value="" style="endArrow=classic;html=1;rounded=0;entryX=0.492;entryY=0.3;entryDx=0;entryDy=0;entryPerimeter=0;" parent="1" edge="1">
          <mxGeometry width="50" height="50" relative="1" as="geometry">
            <mxPoint x="590.0799999999999" y="426" as="sourcePoint" />
            <mxPoint x="590" y="479" as="targetPoint" />
          </mxGeometry>
        </mxCell>
        <mxCell id="o1AAxm44Ju1NQ7rlXFdG-32" value="&lt;b&gt;AUTHENTICATION&lt;/b&gt;" style="shape=rhombus;perimeter=rhombusPerimeter;whiteSpace=wrap;html=1;align=center;" parent="1" vertex="1">
          <mxGeometry x="350.5" y="184" width="150" height="100" as="geometry" />
        </mxCell>
        <mxCell id="o1AAxm44Ju1NQ7rlXFdG-33" value="&lt;b style=&quot;border-color: var(--border-color);&quot;&gt;LOGIN&lt;/b&gt;" style="rounded=1;whiteSpace=wrap;html=1;" parent="1" vertex="1">
          <mxGeometry x="360" y="117" width="130" height="37" as="geometry" />
        </mxCell>
        <mxCell id="o1AAxm44Ju1NQ7rlXFdG-35" value="" style="endArrow=classic;html=1;rounded=0;" parent="1" edge="1">
          <mxGeometry width="50" height="50" relative="1" as="geometry">
            <mxPoint x="426.08" y="283" as="sourcePoint" />
            <mxPoint x="426" y="320" as="targetPoint" />
          </mxGeometry>
        </mxCell>
        <mxCell id="o1AAxm44Ju1NQ7rlXFdG-38" value="&lt;b&gt;&lt;font style=&quot;font-size: 11px;&quot;&gt;INVALID&lt;/font&gt;&lt;/b&gt;" style="text;html=1;strokeColor=none;fillColor=none;align=center;verticalAlign=middle;whiteSpace=wrap;rounded=0;" parent="1" vertex="1">
          <mxGeometry x="486" y="170" width="60" height="21" as="geometry" />
        </mxCell>
        <mxCell id="o1AAxm44Ju1NQ7rlXFdG-40" value="" style="endArrow=none;html=1;rounded=0;" parent="1" edge="1">
          <mxGeometry width="50" height="50" relative="1" as="geometry">
            <mxPoint x="541" y="235" as="sourcePoint" />
            <mxPoint x="541" y="134" as="targetPoint" />
          </mxGeometry>
        </mxCell>
        <mxCell id="o1AAxm44Ju1NQ7rlXFdG-41" value="" style="endArrow=none;html=1;rounded=0;" parent="1" edge="1">
          <mxGeometry width="50" height="50" relative="1" as="geometry">
            <mxPoint x="40" y="729" as="sourcePoint" />
            <mxPoint x="774" y="731" as="targetPoint" />
          </mxGeometry>
        </mxCell>
        <mxCell id="o1AAxm44Ju1NQ7rlXFdG-42" value="" style="endArrow=classic;html=1;rounded=0;" parent="1" edge="1">
          <mxGeometry width="50" height="50" relative="1" as="geometry">
            <mxPoint x="39.079999999999984" y="520" as="sourcePoint" />
            <mxPoint x="39" y="550" as="targetPoint" />
          </mxGeometry>
        </mxCell>
        <mxCell id="o1AAxm44Ju1NQ7rlXFdG-47" value="&lt;b style=&quot;border-color: var(--border-color);&quot;&gt;LOGOUT&lt;/b&gt;" style="rounded=1;whiteSpace=wrap;html=1;" parent="1" vertex="1">
          <mxGeometry x="360" y="784" width="130" height="37" as="geometry" />
        </mxCell>
        <mxCell id="o1AAxm44Ju1NQ7rlXFdG-48" value="" style="ellipse;html=1;shape=endState;fillColor=#000000;strokeColor=#ff0000;" parent="1" vertex="1">
          <mxGeometry x="409" y="862" width="30" height="30" as="geometry" />
        </mxCell>
        <mxCell id="o1AAxm44Ju1NQ7rlXFdG-49" value="" style="endArrow=classic;html=1;rounded=0;" parent="1" edge="1">
          <mxGeometry width="50" height="50" relative="1" as="geometry">
            <mxPoint x="424.08" y="822" as="sourcePoint" />
            <mxPoint x="424" y="862" as="targetPoint" />
          </mxGeometry>
        </mxCell>
        <mxCell id="o1AAxm44Ju1NQ7rlXFdG-50" value="" style="endArrow=classic;html=1;rounded=0;entryX=0.492;entryY=0.3;entryDx=0;entryDy=0;entryPerimeter=0;" parent="1" edge="1">
          <mxGeometry width="50" height="50" relative="1" as="geometry">
            <mxPoint x="424.08" y="731" as="sourcePoint" />
            <mxPoint x="424.00000000000006" y="784" as="targetPoint" />
          </mxGeometry>
        </mxCell>
        <mxCell id="6CYlzOEMmodeaxgm5OF1-2" value="" style="endArrow=classic;html=1;rounded=0;" edge="1" parent="1">
          <mxGeometry width="50" height="50" relative="1" as="geometry">
            <mxPoint x="425" y="87" as="sourcePoint" />
            <mxPoint x="425" y="117" as="targetPoint" />
          </mxGeometry>
        </mxCell>
        <mxCell id="6CYlzOEMmodeaxgm5OF1-3" value="" style="endArrow=classic;html=1;rounded=0;" edge="1" parent="1">
          <mxGeometry width="50" height="50" relative="1" as="geometry">
            <mxPoint x="425" y="154" as="sourcePoint" />
            <mxPoint x="425" y="184" as="targetPoint" />
          </mxGeometry>
        </mxCell>
        <mxCell id="6CYlzOEMmodeaxgm5OF1-8" value="&lt;b&gt;ADD COURSE&lt;/b&gt;" style="rounded=1;whiteSpace=wrap;html=1;" vertex="1" parent="1">
          <mxGeometry x="7" y="550" width="70" height="30" as="geometry" />
        </mxCell>
        <mxCell id="6CYlzOEMmodeaxgm5OF1-9" value="&lt;b&gt;EDIT COURSE&lt;/b&gt;" style="rounded=1;whiteSpace=wrap;html=1;" vertex="1" parent="1">
          <mxGeometry x="85" y="550" width="70" height="30" as="geometry" />
        </mxCell>
        <mxCell id="6CYlzOEMmodeaxgm5OF1-10" value="" style="endArrow=classic;html=1;rounded=0;" edge="1" parent="1">
          <mxGeometry width="50" height="50" relative="1" as="geometry">
            <mxPoint x="116.07999999999998" y="520" as="sourcePoint" />
            <mxPoint x="116" y="550" as="targetPoint" />
          </mxGeometry>
        </mxCell>
        <mxCell id="6CYlzOEMmodeaxgm5OF1-11" value="&lt;b&gt;ADD TEACHER&lt;/b&gt;" style="rounded=1;whiteSpace=wrap;html=1;" vertex="1" parent="1">
          <mxGeometry x="170" y="550" width="70" height="30" as="geometry" />
        </mxCell>
        <mxCell id="6CYlzOEMmodeaxgm5OF1-12" value="&lt;b&gt;EDIT TEACHER&lt;/b&gt;" style="rounded=1;whiteSpace=wrap;html=1;" vertex="1" parent="1">
          <mxGeometry x="270" y="550" width="70" height="30" as="geometry" />
        </mxCell>
        <mxCell id="6CYlzOEMmodeaxgm5OF1-13" value="&lt;b&gt;DELETE TEACHER&lt;/b&gt;" style="rounded=1;whiteSpace=wrap;html=1;" vertex="1" parent="1">
          <mxGeometry x="215" y="600" width="80" height="30" as="geometry" />
        </mxCell>
        <mxCell id="6CYlzOEMmodeaxgm5OF1-15" value="" style="endArrow=classic;html=1;rounded=0;" edge="1" parent="1">
          <mxGeometry width="50" height="50" relative="1" as="geometry">
            <mxPoint x="204.57999999999998" y="520" as="sourcePoint" />
            <mxPoint x="204.5" y="550" as="targetPoint" />
          </mxGeometry>
        </mxCell>
        <mxCell id="6CYlzOEMmodeaxgm5OF1-16" value="" style="endArrow=classic;html=1;rounded=0;" edge="1" parent="1">
          <mxGeometry width="50" height="50" relative="1" as="geometry">
            <mxPoint x="304.58" y="519" as="sourcePoint" />
            <mxPoint x="304.5" y="549" as="targetPoint" />
          </mxGeometry>
        </mxCell>
        <mxCell id="6CYlzOEMmodeaxgm5OF1-17" value="" style="endArrow=classic;html=1;rounded=0;entryX=0.5;entryY=0;entryDx=0;entryDy=0;" edge="1" parent="1" target="6CYlzOEMmodeaxgm5OF1-13">
          <mxGeometry width="50" height="50" relative="1" as="geometry">
            <mxPoint x="254.57999999999998" y="519" as="sourcePoint" />
            <mxPoint x="254.50000000000006" y="572" as="targetPoint" />
          </mxGeometry>
        </mxCell>
        <mxCell id="6CYlzOEMmodeaxgm5OF1-18" value="&lt;b&gt;ADD STUDENT&lt;/b&gt;" style="rounded=1;whiteSpace=wrap;html=1;" vertex="1" parent="1">
          <mxGeometry x="355" y="550" width="70" height="30" as="geometry" />
        </mxCell>
        <mxCell id="6CYlzOEMmodeaxgm5OF1-19" value="&lt;b&gt;EDIT STUDENT&lt;/b&gt;" style="rounded=1;whiteSpace=wrap;html=1;" vertex="1" parent="1">
          <mxGeometry x="450" y="550" width="70" height="30" as="geometry" />
        </mxCell>
        <mxCell id="6CYlzOEMmodeaxgm5OF1-20" value="&lt;b&gt;DELETE STUDENT&lt;/b&gt;" style="rounded=1;whiteSpace=wrap;html=1;" vertex="1" parent="1">
          <mxGeometry x="353" y="620" width="80" height="30" as="geometry" />
        </mxCell>
        <mxCell id="6CYlzOEMmodeaxgm5OF1-21" value="&lt;b&gt;SEARCH STUDENT&lt;/b&gt;" style="rounded=1;whiteSpace=wrap;html=1;" vertex="1" parent="1">
          <mxGeometry x="450" y="620" width="80" height="30" as="geometry" />
        </mxCell>
        <mxCell id="6CYlzOEMmodeaxgm5OF1-22" value="" style="endArrow=classic;html=1;rounded=0;" edge="1" parent="1">
          <mxGeometry width="50" height="50" relative="1" as="geometry">
            <mxPoint x="254.5" y="630" as="sourcePoint" />
            <mxPoint x="255" y="730" as="targetPoint" />
          </mxGeometry>
        </mxCell>
        <mxCell id="6CYlzOEMmodeaxgm5OF1-23" value="" style="endArrow=none;html=1;rounded=0;" edge="1" parent="1">
          <mxGeometry width="50" height="50" relative="1" as="geometry">
            <mxPoint x="394" y="599" as="sourcePoint" />
            <mxPoint x="484" y="599" as="targetPoint" />
          </mxGeometry>
        </mxCell>
        <mxCell id="6CYlzOEMmodeaxgm5OF1-25" value="" style="endArrow=classic;html=1;rounded=0;" edge="1" parent="1">
          <mxGeometry width="50" height="50" relative="1" as="geometry">
            <mxPoint x="392.58" y="520" as="sourcePoint" />
            <mxPoint x="392.5" y="550" as="targetPoint" />
          </mxGeometry>
        </mxCell>
        <mxCell id="6CYlzOEMmodeaxgm5OF1-26" value="" style="endArrow=classic;html=1;rounded=0;" edge="1" parent="1">
          <mxGeometry width="50" height="50" relative="1" as="geometry">
            <mxPoint x="483.08" y="520" as="sourcePoint" />
            <mxPoint x="483" y="550" as="targetPoint" />
          </mxGeometry>
        </mxCell>
        <mxCell id="6CYlzOEMmodeaxgm5OF1-27" value="" style="endArrow=classic;html=1;rounded=0;" edge="1" parent="1">
          <mxGeometry width="50" height="50" relative="1" as="geometry">
            <mxPoint x="394" y="599" as="sourcePoint" />
            <mxPoint x="393.5" y="619" as="targetPoint" />
          </mxGeometry>
        </mxCell>
        <mxCell id="6CYlzOEMmodeaxgm5OF1-28" value="" style="endArrow=classic;html=1;rounded=0;" edge="1" parent="1">
          <mxGeometry width="50" height="50" relative="1" as="geometry">
            <mxPoint x="483" y="599" as="sourcePoint" />
            <mxPoint x="482.5" y="619" as="targetPoint" />
          </mxGeometry>
        </mxCell>
        <mxCell id="6CYlzOEMmodeaxgm5OF1-29" value="&lt;b&gt;DEPOSITE FEES&lt;/b&gt;" style="rounded=1;whiteSpace=wrap;html=1;" vertex="1" parent="1">
          <mxGeometry x="534" y="550" width="70" height="30" as="geometry" />
        </mxCell>
        <mxCell id="6CYlzOEMmodeaxgm5OF1-30" value="&lt;b&gt;FEES PENDING LIST&lt;/b&gt;" style="rounded=1;whiteSpace=wrap;html=1;" vertex="1" parent="1">
          <mxGeometry x="615" y="550" width="90" height="30" as="geometry" />
        </mxCell>
        <mxCell id="6CYlzOEMmodeaxgm5OF1-31" value="" style="endArrow=classic;html=1;rounded=0;" edge="1" parent="1">
          <mxGeometry width="50" height="50" relative="1" as="geometry">
            <mxPoint x="571.5799999999999" y="520" as="sourcePoint" />
            <mxPoint x="571.5" y="550" as="targetPoint" />
          </mxGeometry>
        </mxCell>
        <mxCell id="6CYlzOEMmodeaxgm5OF1-32" value="" style="endArrow=classic;html=1;rounded=0;" edge="1" parent="1">
          <mxGeometry width="50" height="50" relative="1" as="geometry">
            <mxPoint x="655.5799999999999" y="520" as="sourcePoint" />
            <mxPoint x="655.5" y="550" as="targetPoint" />
          </mxGeometry>
        </mxCell>
        <mxCell id="6CYlzOEMmodeaxgm5OF1-33" value="&lt;b&gt;CHANGE USERID &amp;amp; PASSWORD&lt;/b&gt;" style="rounded=1;whiteSpace=wrap;html=1;" vertex="1" parent="1">
          <mxGeometry x="720" y="550" width="110" height="30" as="geometry" />
        </mxCell>
        <mxCell id="6CYlzOEMmodeaxgm5OF1-34" value="" style="endArrow=classic;html=1;rounded=0;" edge="1" parent="1">
          <mxGeometry width="50" height="50" relative="1" as="geometry">
            <mxPoint x="772.5799999999999" y="520" as="sourcePoint" />
            <mxPoint x="772.5" y="550" as="targetPoint" />
          </mxGeometry>
        </mxCell>
        <mxCell id="6CYlzOEMmodeaxgm5OF1-35" value="" style="endArrow=classic;html=1;rounded=0;" edge="1" parent="1">
          <mxGeometry width="50" height="50" relative="1" as="geometry">
            <mxPoint x="39.99999999999997" y="579" as="sourcePoint" />
            <mxPoint x="40" y="730" as="targetPoint" />
          </mxGeometry>
        </mxCell>
        <mxCell id="6CYlzOEMmodeaxgm5OF1-36" value="" style="endArrow=classic;html=1;rounded=0;" edge="1" parent="1">
          <mxGeometry width="50" height="50" relative="1" as="geometry">
            <mxPoint x="117.99999999999997" y="580" as="sourcePoint" />
            <mxPoint x="120" y="730" as="targetPoint" />
          </mxGeometry>
        </mxCell>
        <mxCell id="6CYlzOEMmodeaxgm5OF1-37" value="" style="endArrow=classic;html=1;rounded=0;" edge="1" parent="1">
          <mxGeometry width="50" height="50" relative="1" as="geometry">
            <mxPoint x="201.99999999999997" y="580" as="sourcePoint" />
            <mxPoint x="202" y="730" as="targetPoint" />
          </mxGeometry>
        </mxCell>
        <mxCell id="6CYlzOEMmodeaxgm5OF1-38" value="" style="endArrow=classic;html=1;rounded=0;" edge="1" parent="1">
          <mxGeometry width="50" height="50" relative="1" as="geometry">
            <mxPoint x="304.5" y="580" as="sourcePoint" />
            <mxPoint x="305" y="730" as="targetPoint" />
          </mxGeometry>
        </mxCell>
        <mxCell id="6CYlzOEMmodeaxgm5OF1-39" value="" style="endArrow=classic;html=1;rounded=0;" edge="1" parent="1">
          <mxGeometry width="50" height="50" relative="1" as="geometry">
            <mxPoint x="568.5" y="580" as="sourcePoint" />
            <mxPoint x="569" y="730" as="targetPoint" />
          </mxGeometry>
        </mxCell>
        <mxCell id="6CYlzOEMmodeaxgm5OF1-40" value="" style="endArrow=classic;html=1;rounded=0;" edge="1" parent="1">
          <mxGeometry width="50" height="50" relative="1" as="geometry">
            <mxPoint x="656" y="580" as="sourcePoint" />
            <mxPoint x="656" y="730" as="targetPoint" />
          </mxGeometry>
        </mxCell>
        <mxCell id="6CYlzOEMmodeaxgm5OF1-41" value="" style="endArrow=classic;html=1;rounded=0;" edge="1" parent="1">
          <mxGeometry width="50" height="50" relative="1" as="geometry">
            <mxPoint x="773.5" y="582" as="sourcePoint" />
            <mxPoint x="774" y="731" as="targetPoint" />
          </mxGeometry>
        </mxCell>
        <mxCell id="6CYlzOEMmodeaxgm5OF1-43" value="" style="endArrow=classic;html=1;rounded=0;" edge="1" parent="1">
          <mxGeometry width="50" height="50" relative="1" as="geometry">
            <mxPoint x="392.5" y="650" as="sourcePoint" />
            <mxPoint x="393" y="730" as="targetPoint" />
          </mxGeometry>
        </mxCell>
        <mxCell id="6CYlzOEMmodeaxgm5OF1-44" value="" style="endArrow=classic;html=1;rounded=0;" edge="1" parent="1">
          <mxGeometry width="50" height="50" relative="1" as="geometry">
            <mxPoint x="482.5" y="651" as="sourcePoint" />
            <mxPoint x="483" y="730" as="targetPoint" />
          </mxGeometry>
        </mxCell>
        <mxCell id="6CYlzOEMmodeaxgm5OF1-45" value="" style="endArrow=classic;html=1;rounded=0;entryX=0.5;entryY=0;entryDx=0;entryDy=0;" edge="1" parent="1">
          <mxGeometry width="50" height="50" relative="1" as="geometry">
            <mxPoint x="440" y="519" as="sourcePoint" />
            <mxPoint x="440.41999999999996" y="600" as="targetPoint" />
          </mxGeometry>
        </mxCell>
      </root>
    </mxGraphModel>
  </diagram>
</mxfile>
